<?xml version="1.0" encoding="utf-8"?>
<!-- Generator: Adobe Illustrator 18.0.0, SVG Export Plug-In . SVG Version: 6.00 Build 0)  -->
<!DOCTYPE svg PUBLIC "-//W3C//DTD SVG 1.1//EN" "http://www.w3.org/Graphics/SVG/1.1/DTD/svg11.dtd">
<svg version="1.1" id="Logo" xmlns="http://www.w3.org/2000/svg" xmlns:xlink="http://www.w3.org/1999/xlink" x="0px" y="0px"
	 viewBox="0 0 800 600" enable-background="new 0 0 800 600" xml:space="preserve">
<polygon fill="#E44D26" points="134.2,1.2 665.8,1.2 614.8,543 400,598.8 184,540.6 "/>
<path fill="#FFFFFF" d="M550.6,340.8c0,21-3.6,40.2-10.8,57.6s-18,33-31.8,46.2c-13.8,12.6-30.6,22.8-49.8,29.4
	c-19.2,7.2-43.2,10.2-71.4,10.2c-30,0-55.2-3-76.8-7.8s-39-10.2-53.4-16.8V372h9c4.8,3,10.8,6,16.8,9.6s14.4,7.2,24.6,11.4
	c9.6,3.6,19.2,6.6,28.8,9c9.6,2.4,20.4,3.6,32.4,3.6c10.2,0,21.6-1.2,33.6-3.6c12-2.4,21.6-7.2,28.8-14.4c5.4-5.4,9.6-11.4,12.6-18
	s4.8-15.6,4.8-26.4c0-9.6-1.8-17.4-6-24c-4.2-6.6-9-12-15-16.2c-9-6-20.4-10.2-33-12c-13.2-1.8-24-2.4-33.6-2.4
	c-15,0-28.8,1.2-42.6,3.6c-13.8,2.4-25.8,4.8-36,7.8H274V75h265.2v75.6H368.8v66.6c5.4-0.6,12-0.6,19.2-1.2c7.2,0,13.2-0.6,17.4-0.6
	c19.2,0,37.2,1.8,53.4,6c16.2,3.6,30.6,9.6,43.2,18c15,9.6,27,22.8,35.4,39.6S550.6,316.8,550.6,340.8z"/>
</svg>
