<?xml version="1.0" encoding="utf-8"?>
<!-- Generator: Adobe Illustrator 18.0.0, SVG Export Plug-In . SVG Version: 6.00 Build 0)  -->
<!DOCTYPE svg PUBLIC "-//W3C//DTD SVG 1.1//EN" "http://www.w3.org/Graphics/SVG/1.1/DTD/svg11.dtd">
<svg version="1.1" id="Logo" xmlns="http://www.w3.org/2000/svg" xmlns:xlink="http://www.w3.org/1999/xlink" x="0px" y="0px"
	 viewBox="0 600 100 100" enable-background="new 0 600 100 100" xml:space="preserve">
<polygon id="bg" fill="#969696" points="80.1,681.3 19.9,681.3 2.5,650 19.9,618.7 80.1,618.7 97.5,650 "/>
<path id="n" fill="#FFFFFF" d="M72.5,670.4c0,0.8-0.4,1.3-1.2,1.4c-0.8,0.1-3,0.2-6.4,0.2c-3.7,0-6-0.1-6.9-0.3
	c-0.9-0.2-1.3-0.8-1.3-1.8c0-1.4,0-3.5,0.1-6.3c0.1-2.8,0.1-4.9,0.1-6.3c0-1.1,0-2.7-0.1-4.9c-0.1-2.2-0.1-3.8-0.1-4.9
	c0-4-1.8-6-5.3-6c-1.1,0-2.5,0.5-4,1.5c-1.6,1.1-2.5,2.2-2.5,3.3v23.8c0,1-0.5,1.5-1.4,1.6c-1,0.1-3.1,0.2-6.3,0.2
	c-3.4,0-5.7-0.1-6.7-0.3c-0.9-0.1-1.4-0.6-1.4-1.5c0-2.3,0-5.8,0-10.4c0-4.6,0-8.1,0-10.4c0-7.3-0.6-13.1-1.7-17.3
	c-0.1-0.3-0.1-0.5-0.1-0.7c0-0.5,0.2-0.8,0.7-1c1.9-0.2,4.3-0.5,7.4-1c4.7-0.9,7.3-1.4,7.9-1.4c0.3,0,0.6,1,0.8,3c0.2,2,0.4,3,0.8,3
	c-0.3,0,1.3-1,4.7-3.1c3.5-2,6.5-3.1,9.2-3.1c3.7,0,6.9,0.9,9.4,2.6c2.8,2,4.2,4.9,4.2,8.5v14.1c0,1.9,0,4.8,0,8.6
	C72.5,665.6,72.5,668.5,72.5,670.4z"/>
</svg>
