<?xml version="1.0" encoding="utf-8"?>
<!-- Generator: Adobe Illustrator 18.0.0, SVG Export Plug-In . SVG Version: 6.00 Build 0)  -->
<!DOCTYPE svg PUBLIC "-//W3C//DTD SVG 1.1//EN" "http://www.w3.org/Graphics/SVG/1.1/DTD/svg11.dtd">
<svg version="1.1" xmlns="http://www.w3.org/2000/svg" xmlns:xlink="http://www.w3.org/1999/xlink" x="0px" y="0px"
	 viewBox="0 600 100 100" enable-background="new 0 600 100 100" xml:space="preserve">
<g id="bg">
	<rect y="600" fill="#FFFFFF" width="100" height="100"/>
</g>
<g id="Layer_1" display="none">
	<g display="inline">
		<path fill="#969696" d="M26.2,660.6L11,651.8v-3.6l15.2-8.8v4.6l-10.6,6l10.6,6.1V660.6z"/>
		<path fill="#969696" d="M89.2,651.8L74,660.7V656l10.7-6L74,644v-4.6l15.2,8.8V651.8z"/>
		<g>
			<path fill="#969696" d="M59.4,667.9v-22.8c0-2.9-0.7-5-2-6.4c-1.3-1.4-3.4-2.1-6.1-2.1c-3.7,0-6.4,1-8.1,3
				c-1.7,2-2.6,5.3-2.6,9.9v18.5h-5.3v-35.2h4.3l0.9,4.8h0.3c1.1-1.7,2.6-3.1,4.6-4c2-1,4.2-1.4,6.6-1.4c4.2,0,7.4,1,9.6,3.1
				c2.1,2,3.2,5.3,3.2,9.8v23H59.4z"/>
		</g>
	</g>
</g>
<g id="round">
	
		<polyline fill="none" stroke="#969696" stroke-width="8" stroke-linecap="round" stroke-linejoin="round" stroke-miterlimit="10" points="
		25,635 10,650 25,665 	"/>
	
		<polyline fill="none" stroke="#969696" stroke-width="8" stroke-linecap="round" stroke-linejoin="round" stroke-miterlimit="10" points="
		75,665 90,650 75,635 	"/>
	<g>
		
			<line fill="none" stroke="#969696" stroke-width="8" stroke-linecap="round" stroke-linejoin="round" stroke-miterlimit="10" x1="40.2" y1="633.5" x2="40.2" y2="665"/>
		<path fill="none" stroke="#969696" stroke-width="8" stroke-linecap="round" stroke-linejoin="round" stroke-miterlimit="10" d="
			M59.8,665v-18.5c0-13-19.7-13-19.7,0"/>
	</g>
</g>
</svg>
