<?xml version="1.0" encoding="utf-8"?>
<!-- Generator: Adobe Illustrator 18.0.0, SVG Export Plug-In . SVG Version: 6.00 Build 0)  -->
<!DOCTYPE svg PUBLIC "-//W3C//DTD SVG 1.1//EN" "http://www.w3.org/Graphics/SVG/1.1/DTD/svg11.dtd">
<svg version="1.1" id="Layer_1" xmlns="http://www.w3.org/2000/svg" xmlns:xlink="http://www.w3.org/1999/xlink" x="0px" y="0px"
	 viewBox="0 0 100 100" enable-background="new 0 0 100 100" xml:space="preserve">
<rect fill="#FFFFFF" width="100" height="100"/>
<path d="M26.2,60.6L11,51.8v-3.6l15.2-8.8v4.6L15.6,50l10.6,6.1V60.6z"/>
<path d="M65.7,67.1H55.3V50.6c0-1.3-0.1-2.7-0.2-4s-0.3-2.3-0.6-3c-0.4-0.8-0.9-1.3-1.5-1.6c-0.7-0.3-1.6-0.5-2.7-0.5
	c-0.9,0-1.7,0.2-2.6,0.5c-0.9,0.3-1.8,0.8-2.8,1.5v23.6H34.5V33.8h10.4v3.7c1.7-1.4,3.4-2.6,5-3.4c1.6-0.8,3.4-1.2,5.4-1.2
	c3.4,0,6,1.1,7.8,3.2c1.8,2.1,2.7,5.3,2.7,9.3V67.1z"/>
<path d="M89.2,51.8L74,60.6v-4.6L84.7,50L74,43.9v-4.6l15.2,8.8V51.8z"/>
</svg>
